<svg width="25" height="24" viewBox="0 0 25 24" fill="none" xmlns="http://www.w3.org/2000/svg">
<g clip-path="url(#clip0_2379_21342)">
<path fill-rule="evenodd" clip-rule="evenodd" d="M2.19668 4.31445H22.3538H22.8033C22.8526 4.31939 22.9037 4.32264 22.9552 4.32593C23.0552 4.33231 23.1572 4.33882 23.2529 4.35796C23.4124 4.38696 23.5574 4.43047 23.6879 4.50297C23.8184 4.56098 23.9489 4.66249 24.0505 4.764C24.152 4.86551 24.239 4.99602 24.3115 5.12654C24.384 5.27155 24.4275 5.41657 24.4565 5.56158C24.4855 5.7066 24.5 5.86611 24.5 6.01113V6.21415V6.46068V17.7719V17.9749C24.4951 18.0242 24.4918 18.0752 24.4885 18.1267C24.4821 18.2267 24.4756 18.3287 24.4565 18.4244C24.4275 18.5839 24.384 18.729 24.3115 18.8595C24.2535 18.99 24.152 19.1205 24.0505 19.222C23.9489 19.3235 23.8184 19.4105 23.6879 19.483C23.5429 19.5555 23.3979 19.599 23.2529 19.628C23.1079 19.6571 22.9483 19.6716 22.8033 19.6716H2.19668C2.14735 19.6666 2.09635 19.6634 2.04481 19.6601C1.94483 19.6537 1.84282 19.6472 1.74713 19.628C1.58761 19.599 1.4426 19.5555 1.31208 19.483C1.18157 19.425 1.05106 19.3235 0.949547 19.222C0.848036 19.1205 0.761027 18.99 0.68852 18.8595C0.616012 18.7145 0.572508 18.5694 0.543505 18.4244C0.514502 18.2794 0.5 18.1199 0.5 17.9749V6.01113C0.504932 5.96181 0.508187 5.9108 0.511476 5.85926C0.517857 5.75928 0.524366 5.65727 0.543505 5.56158C0.572508 5.40207 0.616012 5.25705 0.68852 5.12654C0.746526 4.99602 0.848036 4.86551 0.949547 4.764C1.05106 4.66249 1.18157 4.56098 1.31208 4.50297C1.4571 4.43047 1.60211 4.38696 1.74713 4.35796C1.89215 4.32895 2.05166 4.31445 2.19668 4.31445ZM22.8033 4.82199H22.3538H2.19669C2.08068 4.82199 1.95017 4.82199 1.81965 4.85099C1.70364 4.8655 1.61663 4.8945 1.52962 4.938C1.44261 4.98151 1.37011 5.03951 1.2976 5.11202C1.22509 5.18453 1.16708 5.25704 1.12358 5.34405C1.08008 5.43105 1.05107 5.53257 1.03657 5.63408C1.02207 5.76459 1.00757 5.8951 1.00757 6.01111V6.21414V17.9604C1.00757 18.0764 1.00757 18.2069 1.03657 18.3374C1.05107 18.4534 1.08008 18.5404 1.12358 18.6274C1.16708 18.7144 1.22509 18.7869 1.2976 18.8595C1.37011 18.932 1.44261 18.99 1.52962 19.0335C1.61663 19.0915 1.71814 19.1205 1.81965 19.135C1.95017 19.1495 2.09518 19.164 2.19669 19.164H22.8033C22.9194 19.164 23.0499 19.164 23.1804 19.135C23.2964 19.1205 23.3834 19.0915 23.4704 19.048C23.5574 19.0045 23.6299 18.9465 23.7024 18.874C23.7749 18.8014 23.8329 18.7289 23.8764 18.6419C23.92 18.5549 23.949 18.4534 23.9635 18.3519L23.9635 18.3519C23.978 18.2214 23.9925 18.0909 23.9925 17.9749V6.01111C23.9925 5.8951 23.9925 5.76459 23.9635 5.63408C23.949 5.51806 23.92 5.43105 23.8764 5.34405C23.8329 5.25704 23.7749 5.18453 23.7024 5.11202C23.6299 5.03951 23.5574 4.98151 23.4704 4.938C23.3834 4.8945 23.2964 4.8655 23.1804 4.85099C23.0499 4.83649 22.9194 4.82199 22.8033 4.82199Z" fill="black"/>
<path d="M7.05429 9.47663C7.25731 9.2156 7.40233 8.86757 7.35882 8.51953C7.05429 8.53403 6.69176 8.72255 6.47423 8.96908C6.28571 9.1866 6.11169 9.54914 6.1552 9.88267C6.50324 9.92618 6.83677 9.73766 7.05429 9.47663ZM7.35882 9.96968C6.86577 9.94068 6.44523 10.2452 6.21321 10.2452C5.98118 10.2452 5.61864 9.98418 5.2271 9.98418C4.71955 9.99869 4.2555 10.2742 3.99447 10.7383C3.47242 11.6519 3.84946 13.0005 4.37151 13.7401C4.61804 14.1026 4.92257 14.5087 5.31411 14.4942C5.69115 14.4797 5.83617 14.2476 6.28571 14.2476C6.73526 14.2476 6.86577 14.4942 7.27182 14.4797C7.67786 14.4652 7.93888 14.1171 8.18541 13.7401C8.47544 13.3195 8.59145 12.9135 8.59145 12.899C8.57695 12.8845 7.79387 12.5945 7.79387 11.6954C7.77937 10.9413 8.40293 10.5787 8.43194 10.5642C8.0984 10.0422 7.54734 9.98418 7.35882 9.96968Z" fill="black"/>
<path d="M11.6217 8.94043C12.6948 8.94043 13.4344 9.68001 13.4344 10.7386C13.4344 11.8117 12.6803 12.5513 11.5927 12.5513H10.4181V14.422H9.5625V8.94043H11.6217ZM10.4181 11.8407H11.3897C12.1293 11.8407 12.5498 11.4347 12.5498 10.7531C12.5498 10.057 12.1293 9.66551 11.3897 9.66551H10.4036V11.8407H10.4181ZM13.6519 13.3054C13.6519 12.6093 14.1885 12.1743 15.1456 12.1163L16.2477 12.0583V11.7537C16.2477 11.3042 15.9432 11.0431 15.4501 11.0431C14.9716 11.0431 14.6815 11.2752 14.609 11.6232H13.8259C13.8694 10.8981 14.493 10.3616 15.4791 10.3616C16.4507 10.3616 17.0743 10.8691 17.0743 11.6812V14.4365H16.2912V13.7839H16.2767C16.0447 14.2335 15.5371 14.509 15.0151 14.509C14.203 14.509 13.6519 14.016 13.6519 13.3054ZM16.2477 12.9428V12.6238L15.2616 12.6818C14.7685 12.7108 14.493 12.9283 14.493 13.2764C14.493 13.6244 14.783 13.8564 15.2181 13.8564C15.7981 13.8564 16.2477 13.4649 16.2477 12.9428ZM17.7994 15.9157V15.2486C17.8574 15.2631 18.0024 15.2631 18.0604 15.2631C18.4374 15.2631 18.6404 15.1036 18.771 14.6975C18.771 14.683 18.8435 14.451 18.8435 14.451L17.3933 10.4486H18.2779L19.293 13.7114H19.3075L20.3226 10.4486H21.1927L19.6991 14.6685C19.351 15.6401 18.9595 15.9447 18.1329 15.9447C18.0749 15.9302 17.8719 15.9302 17.7994 15.9157Z" fill="black"/>
</g>
<defs>
<clipPath id="clip0_2379_21342">
<rect width="24" height="24" fill="white" transform="translate(0.5)"/>
</clipPath>
</defs>
</svg>
