<svg width="229" height="44" viewBox="0 0 229 44" fill="none" xmlns="http://www.w3.org/2000/svg">
<rect width="229" height="44" rx="8" fill="white"/>
<path d="M101.5 11V34.5" stroke="#E5E5E5" stroke-width="0.5"/>
<path d="M19.6456 10.493V17H18.7636V10.493H19.6456ZM21.505 17H20.659V12.599H21.424L21.514 13.274C21.793 12.77 22.351 12.473 22.972 12.473C24.133 12.473 24.664 13.184 24.664 14.309V17H23.818V14.498C23.818 13.607 23.404 13.247 22.756 13.247C21.964 13.247 21.505 13.814 21.505 14.669V17ZM27.5767 18.971V12.599H28.3417L28.4047 13.391C28.7017 12.788 29.2957 12.473 29.9977 12.473C31.2577 12.473 32.0407 13.418 32.0407 14.768C32.0407 16.109 31.3027 17.117 29.9977 17.117C29.2957 17.117 28.7107 16.82 28.4227 16.28V18.971H27.5767ZM28.4317 14.804C28.4317 15.704 28.9537 16.352 29.8177 16.352C30.6817 16.352 31.1947 15.704 31.1947 14.804C31.1947 13.895 30.6817 13.247 29.8177 13.247C28.9537 13.247 28.4317 13.886 28.4317 14.804ZM33.9002 17.108C32.9552 17.108 32.3972 16.577 32.3972 15.776C32.3972 14.966 33.0002 14.462 34.0352 14.381L35.4212 14.273V14.147C35.4212 13.409 34.9802 13.148 34.3862 13.148C33.6752 13.148 33.2702 13.463 33.2702 13.994H32.5322C32.5322 13.076 33.2882 12.473 34.4222 12.473C35.5112 12.473 36.2492 13.049 36.2492 14.237V17H35.5292L35.4392 16.289C35.2142 16.793 34.6112 17.108 33.9002 17.108ZM34.1432 16.451C34.9442 16.451 35.4302 15.929 35.4302 15.101V14.867L34.3052 14.957C33.5582 15.029 33.2522 15.317 33.2522 15.749C33.2522 16.217 33.5942 16.451 34.1432 16.451ZM39.5808 12.563V13.337H39.2028C38.4018 13.337 37.9068 13.823 37.9068 14.669V17H37.0608V12.608H37.8528L37.9068 13.274C38.0868 12.815 38.5278 12.509 39.1308 12.509C39.2838 12.509 39.4098 12.527 39.5808 12.563ZM42.242 16.262L42.35 16.964C42.125 17.054 41.873 17.099 41.621 17.099C40.847 17.099 40.406 16.658 40.406 15.767V13.31H39.722V12.599H40.406V11.222H41.252V12.599H42.278V13.31H41.252V15.65C41.252 16.154 41.486 16.343 41.819 16.343C41.945 16.343 42.098 16.316 42.242 16.262ZM43.7083 17H42.8623V12.599H43.6273L43.7173 13.274C43.9963 12.77 44.5543 12.473 45.1753 12.473C46.3363 12.473 46.8673 13.184 46.8673 14.309V17H46.0213V14.498C46.0213 13.607 45.6073 13.247 44.9593 13.247C44.1673 13.247 43.7083 13.814 43.7083 14.669V17ZM49.578 17.108C48.282 17.108 47.391 16.172 47.391 14.804C47.391 13.427 48.264 12.473 49.542 12.473C50.793 12.473 51.612 13.337 51.612 14.642V14.957L48.21 14.966C48.273 15.893 48.759 16.406 49.596 16.406C50.253 16.406 50.685 16.136 50.829 15.632H51.621C51.405 16.577 50.667 17.108 49.578 17.108ZM49.542 13.184C48.804 13.184 48.336 13.625 48.228 14.399H50.766C50.766 13.67 50.289 13.184 49.542 13.184ZM54.717 12.563V13.337H54.339C53.538 13.337 53.043 13.823 53.043 14.669V17H52.197V12.608H52.989L53.043 13.274C53.223 12.815 53.664 12.509 54.267 12.509C54.42 12.509 54.546 12.527 54.717 12.563ZM54.7904 15.722H55.6004C55.6004 16.172 55.9424 16.442 56.5004 16.442C57.0944 16.442 57.4364 16.199 57.4364 15.794C57.4364 15.497 57.2924 15.317 56.8334 15.2L56.0594 15.02C55.2764 14.831 54.9074 14.444 54.9074 13.796C54.9074 12.986 55.5914 12.473 56.5634 12.473C57.5264 12.473 58.1564 13.013 58.1744 13.85H57.3644C57.3464 13.409 57.0494 13.13 56.5364 13.13C56.0054 13.13 55.7084 13.364 55.7084 13.769C55.7084 14.066 55.9244 14.264 56.3564 14.372L57.1304 14.561C57.8774 14.741 58.2464 15.083 58.2464 15.74C58.2464 16.577 57.5264 17.108 56.4824 17.108C55.4474 17.108 54.7904 16.559 54.7904 15.722ZM59.6706 16.991H58.8246V10.376H59.6706V13.274C59.9496 12.797 60.4806 12.473 61.1646 12.473C62.2896 12.473 62.8296 13.184 62.8296 14.309V17H61.9836V14.498C61.9836 13.607 61.5606 13.247 60.9306 13.247C60.1116 13.247 59.6706 13.841 59.6706 14.597V16.991ZM64.0554 11.555C63.7494 11.555 63.4974 11.303 63.4974 10.997C63.4974 10.682 63.7494 10.439 64.0554 10.439C64.3614 10.439 64.6134 10.682 64.6134 10.997C64.6134 11.303 64.3614 11.555 64.0554 11.555ZM63.6414 17V12.599H64.4874V17H63.6414ZM65.3556 18.971V12.599H66.1206L66.1836 13.391C66.4806 12.788 67.0746 12.473 67.7766 12.473C69.0366 12.473 69.8196 13.418 69.8196 14.768C69.8196 16.109 69.0816 17.117 67.7766 17.117C67.0746 17.117 66.4896 16.82 66.2016 16.28V18.971H65.3556ZM66.2106 14.804C66.2106 15.704 66.7326 16.352 67.5966 16.352C68.4606 16.352 68.9736 15.704 68.9736 14.804C68.9736 13.895 68.4606 13.247 67.5966 13.247C66.7326 13.247 66.2106 13.886 66.2106 14.804ZM73.438 17L71.998 12.599H72.871L73.6 14.885C73.699 15.209 73.789 15.542 73.87 15.929C73.942 15.542 74.059 15.173 74.158 14.885L74.896 12.599H75.76L76.489 14.885C76.561 15.101 76.705 15.614 76.777 15.929C76.849 15.578 76.93 15.272 77.056 14.885L77.794 12.599H78.676L77.173 17H76.372L75.607 14.642C75.463 14.201 75.373 13.859 75.328 13.616C75.283 13.832 75.202 14.12 75.04 14.651L74.275 17H73.438ZM79.4552 11.555C79.1492 11.555 78.8972 11.303 78.8972 10.997C78.8972 10.682 79.1492 10.439 79.4552 10.439C79.7612 10.439 80.0132 10.682 80.0132 10.997C80.0132 11.303 79.7612 11.555 79.4552 11.555ZM79.0412 17V12.599H79.8872V17H79.0412ZM82.8074 16.262L82.9154 16.964C82.6904 17.054 82.4384 17.099 82.1864 17.099C81.4124 17.099 80.9714 16.658 80.9714 15.767V13.31H80.2874V12.599H80.9714V11.222H81.8174V12.599H82.8434V13.31H81.8174V15.65C81.8174 16.154 82.0514 16.343 82.3844 16.343C82.5104 16.343 82.6634 16.316 82.8074 16.262ZM84.2737 16.991H83.4277V10.376H84.2737V13.274C84.5527 12.797 85.0837 12.473 85.7677 12.473C86.8927 12.473 87.4327 13.184 87.4327 14.309V17H86.5867V14.498C86.5867 13.607 86.1637 13.247 85.5337 13.247C84.7147 13.247 84.2737 13.841 84.2737 14.597V16.991Z" fill="#A9A9A9"/>
<path d="M142.032 16V9.493H144.516C145.785 9.493 146.559 10.141 146.559 11.212C146.559 11.959 146.235 12.463 145.587 12.733C146.307 12.967 146.676 13.489 146.676 14.263C146.676 15.343 145.893 16 144.606 16H142.032ZM144.462 10.276H142.914V12.364H144.516C145.245 12.364 145.659 11.968 145.659 11.293C145.659 10.645 145.227 10.276 144.462 10.276ZM144.588 13.129H142.914V15.217H144.588C145.344 15.217 145.767 14.83 145.767 14.155C145.767 13.507 145.335 13.129 144.588 13.129ZM148.563 16.108C147.618 16.108 147.06 15.577 147.06 14.776C147.06 13.966 147.663 13.462 148.698 13.381L150.084 13.273V13.147C150.084 12.409 149.643 12.148 149.049 12.148C148.338 12.148 147.933 12.463 147.933 12.994H147.195C147.195 12.076 147.951 11.473 149.085 11.473C150.174 11.473 150.912 12.049 150.912 13.237V16H150.192L150.102 15.289C149.877 15.793 149.274 16.108 148.563 16.108ZM148.806 15.451C149.607 15.451 150.093 14.929 150.093 14.101V13.867L148.968 13.957C148.221 14.029 147.915 14.317 147.915 14.749C147.915 15.217 148.257 15.451 148.806 15.451ZM152.57 16H151.724V11.599H152.489L152.579 12.274C152.858 11.77 153.416 11.473 154.037 11.473C155.198 11.473 155.729 12.184 155.729 13.309V16H154.883V13.498C154.883 12.607 154.469 12.247 153.821 12.247C153.029 12.247 152.57 12.814 152.57 13.669V16ZM157.405 16H156.559V9.376H157.405V13.669L159.358 11.599H160.42L158.737 13.354L160.411 16H159.439L158.152 13.966L157.405 14.749V16ZM161.165 10.555C160.859 10.555 160.607 10.303 160.607 9.997C160.607 9.682 160.859 9.439 161.165 9.439C161.471 9.439 161.723 9.682 161.723 9.997C161.723 10.303 161.471 10.555 161.165 10.555ZM160.751 16V11.599H161.597V16H160.751ZM163.311 16H162.465V11.599H163.23L163.32 12.274C163.599 11.77 164.157 11.473 164.778 11.473C165.939 11.473 166.47 12.184 166.47 13.309V16H165.624V13.498C165.624 12.607 165.21 12.247 164.562 12.247C163.77 12.247 163.311 12.814 163.311 13.669V16ZM167.003 13.687C167.003 12.445 167.804 11.473 169.082 11.473C169.793 11.473 170.342 11.797 170.621 12.346L170.684 11.599H171.44V15.82C171.44 17.206 170.585 18.088 169.235 18.088C168.038 18.088 167.219 17.413 167.057 16.297H167.903C168.011 16.945 168.497 17.323 169.235 17.323C170.063 17.323 170.603 16.783 170.603 15.946V15.064C170.315 15.577 169.739 15.883 169.046 15.883C167.795 15.883 167.003 14.92 167.003 13.687ZM167.849 13.669C167.849 14.497 168.362 15.145 169.19 15.145C170.045 15.145 170.567 14.533 170.567 13.669C170.567 12.823 170.063 12.211 169.199 12.211C168.353 12.211 167.849 12.859 167.849 13.669ZM174.402 17.971V11.599H175.167L175.23 12.391C175.527 11.788 176.121 11.473 176.823 11.473C178.083 11.473 178.866 12.418 178.866 13.768C178.866 15.109 178.128 16.117 176.823 16.117C176.121 16.117 175.536 15.82 175.248 15.28V17.971H174.402ZM175.257 13.804C175.257 14.704 175.779 15.352 176.643 15.352C177.507 15.352 178.02 14.704 178.02 13.804C178.02 12.895 177.507 12.247 176.643 12.247C175.779 12.247 175.257 12.886 175.257 13.804ZM180.725 16.108C179.78 16.108 179.222 15.577 179.222 14.776C179.222 13.966 179.825 13.462 180.86 13.381L182.246 13.273V13.147C182.246 12.409 181.805 12.148 181.211 12.148C180.5 12.148 180.095 12.463 180.095 12.994H179.357C179.357 12.076 180.113 11.473 181.247 11.473C182.336 11.473 183.074 12.049 183.074 13.237V16H182.354L182.264 15.289C182.039 15.793 181.436 16.108 180.725 16.108ZM180.968 15.451C181.769 15.451 182.255 14.929 182.255 14.101V13.867L181.13 13.957C180.383 14.029 180.077 14.317 180.077 14.749C180.077 15.217 180.419 15.451 180.968 15.451ZM186.406 11.563V12.337H186.028C185.227 12.337 184.732 12.823 184.732 13.669V16H183.886V11.608H184.678L184.732 12.274C184.912 11.815 185.353 11.509 185.956 11.509C186.109 11.509 186.235 11.527 186.406 11.563ZM189.067 15.262L189.175 15.964C188.95 16.054 188.698 16.099 188.446 16.099C187.672 16.099 187.231 15.658 187.231 14.767V12.31H186.547V11.599H187.231V10.222H188.077V11.599H189.103V12.31H188.077V14.65C188.077 15.154 188.311 15.343 188.644 15.343C188.77 15.343 188.923 15.316 189.067 15.262ZM190.533 16H189.687V11.599H190.452L190.542 12.274C190.821 11.77 191.379 11.473 192 11.473C193.161 11.473 193.692 12.184 193.692 13.309V16H192.846V13.498C192.846 12.607 192.432 12.247 191.784 12.247C190.992 12.247 190.533 12.814 190.533 13.669V16ZM196.403 16.108C195.107 16.108 194.216 15.172 194.216 13.804C194.216 12.427 195.089 11.473 196.367 11.473C197.618 11.473 198.437 12.337 198.437 13.642V13.957L195.035 13.966C195.098 14.893 195.584 15.406 196.421 15.406C197.078 15.406 197.51 15.136 197.654 14.632H198.446C198.23 15.577 197.492 16.108 196.403 16.108ZM196.367 12.184C195.629 12.184 195.161 12.625 195.053 13.399H197.591C197.591 12.67 197.114 12.184 196.367 12.184ZM201.542 11.563V12.337H201.164C200.363 12.337 199.868 12.823 199.868 13.669V16H199.022V11.608H199.814L199.868 12.274C200.048 11.815 200.489 11.509 201.092 11.509C201.245 11.509 201.371 11.527 201.542 11.563Z" fill="#A9A9A9"/>
<g clip-path="url(#clip0_7715_38801)">
<path d="M130.228 34.6854H133.955L136.877 23.7959H133.188L130.228 34.6854Z" fill="#004A7F"/>
<path d="M149.337 34.6854H153.065L155.987 23.7959H152.259L149.337 34.6854Z" fill="#004A7F"/>
<path d="M168.481 34.6854H172.172L175.059 23.7959H171.332L168.481 34.6854Z" fill="#004A7F"/>
<path d="M145.866 27.5234H149.593C150.104 25.0763 148.534 23.8345 144.88 23.8345C140.641 23.8345 137.792 25.9163 136.806 29.4609C135.964 32.7481 137.683 34.7222 141.664 34.7222C145.683 34.7222 148.057 33.4804 149.045 30.6662H145.318C144.77 31.908 143.82 32.5289 142.506 32.5289C140.714 32.5289 139.984 31.4332 140.532 29.3514C141.116 27.1946 142.506 25.9894 144.295 25.9894C145.464 25.9894 145.975 26.5007 145.866 27.5234Z" fill="#004A7F"/>
<path d="M165.011 27.5234H168.739C169.25 25.0763 167.641 23.8345 163.987 23.8345C159.785 23.8345 156.9 25.9163 155.95 29.4609C155.073 32.7481 156.79 34.7222 160.773 34.7222C164.756 34.7222 167.13 33.4804 168.152 30.6662H164.427C163.914 31.908 162.928 32.5289 161.613 32.5289C159.823 32.5289 159.093 31.4332 159.675 29.3514C160.225 27.1946 161.613 25.9894 163.403 25.9894C164.573 25.9894 165.121 26.5007 165.011 27.5234Z" fill="#004A7F"/>
<path d="M115.869 17.7695C120.838 12.837 126.866 11.5568 129.278 14.9188C131.691 18.2808 129.571 25.076 124.602 30.0086C119.633 34.9776 113.604 36.2559 111.155 32.8574C108.781 29.4607 110.902 22.7002 115.869 17.7695Z" fill="#F06321"/>
<path d="M119.158 15.1379C118.61 15.5397 118.062 16.0145 117.514 16.5276C113.166 20.8374 111.338 26.7561 113.495 29.7163C115.723 32.6747 121.057 31.579 125.515 27.2309C127.927 24.8934 129.534 22.1888 130.192 19.6687C130.374 17.806 130.119 16.1606 129.278 14.9188C127.379 12.2891 123.287 12.5064 119.158 15.1379Z" fill="#AE282E"/>
<path d="M125.441 15.6858V15.7954C125.405 16.4163 125.04 17.1833 124.382 17.8407C123.396 18.7903 122.081 19.1556 121.532 18.6096C120.911 18.0252 121.278 16.745 122.264 15.7224C123.287 14.7362 124.601 14.4075 125.149 14.9919C125.332 15.1745 125.441 15.3937 125.441 15.6858ZM121.643 32.4557C119.304 34.2088 116.893 35.0872 114.554 34.7219C115.54 34.7585 116.345 33.6609 117.003 32.2C117.66 30.7025 118.025 29.3146 118.354 27.9979C118.829 25.9161 118.865 24.4552 118.61 24.1264C118.208 23.6133 117.331 23.7247 116.307 24.3091C115.796 24.6013 115.138 24.4186 115.907 23.469C116.71 22.5194 119.815 20.2531 120.911 19.8879C122.154 19.5592 123.542 20.034 123.067 21.3853C122.737 22.3715 118.427 33.6244 121.643 32.4557Z" fill="white"/>
<path d="M180.649 32.9671L181.489 29.826H183.534V28.146H181.964L182.694 25.4779H183.534V23.8325H180.756L177.871 34.722H183.534V32.9671H180.649ZM183.534 29.826H183.936C185.8 29.826 186.677 30.1548 186.312 31.4331C186.02 32.5653 185.106 32.9671 183.534 32.9671V34.722C185.07 34.722 186.202 34.5759 187.334 33.8071C188.101 33.2958 188.651 32.5288 188.87 31.6522C189.27 30.1548 188.613 29.1303 186.896 28.913C188.503 28.6208 189.528 27.7789 189.855 26.464C190.147 25.4779 189.891 24.7474 189.197 24.2726C188.613 23.8709 187.627 23.8325 186.312 23.8325H183.534V25.4779H184.96C186.713 25.4779 187.517 25.697 187.261 26.7928C186.933 27.8519 185.983 28.146 184.193 28.146H183.534V29.826Z" fill="#004A7F"/>
<path d="M193.764 27.0866V28.4362C193.472 28.5841 193.217 28.8398 193.107 29.205H190.916C191.279 28.1458 192.267 27.4135 193.764 27.0866ZM193.764 33.4801C193.509 33.5531 193.217 33.5897 192.924 33.5897C191.938 33.5897 191.5 33.1861 191.719 32.4556C191.938 31.6156 192.596 31.3234 193.764 31.2138V29.9355C191.242 30.1181 189.855 30.7755 189.416 32.4191C189.015 33.9166 189.966 34.9045 191.938 34.9045C192.596 34.9045 193.217 34.795 193.764 34.5758V33.4801ZM195.885 31.2138L195.848 31.3234C195.556 32.4556 194.787 33.2244 193.764 33.4801V34.5758C194.312 34.3548 194.787 34.0645 195.225 33.6627L195.043 34.7219H197.236C197.346 34.2087 197.455 33.6244 197.601 33.04L198.441 29.972C198.514 29.7163 198.551 29.4607 198.551 29.205V28.8398C198.478 27.5961 197.419 26.9387 195.446 26.9387C194.824 26.9387 194.276 27.0118 193.764 27.0866V28.4362C194.093 28.2554 194.495 28.1823 195.008 28.1823C196.138 28.1823 196.579 28.6919 196.248 29.7894L196.213 29.899H195.043C194.606 29.899 194.166 29.9355 193.764 29.9355V31.2138L195.885 31.2138Z" fill="#004A7F"/>
<path d="M199.208 34.7219H201.438L202.497 30.812C202.863 29.4242 204.141 28.4362 205.492 28.4362C206.807 28.4362 207.284 29.205 206.846 30.739L205.785 34.7219H208.014L209.256 30.0816C209.767 28.1093 208.781 26.9387 206.59 26.9387C205.164 26.9387 204.031 27.4501 203.045 28.4727L203.301 27.1213H201.073C200.854 28.3266 200.708 29.0589 200.633 29.3511L199.208 34.7219Z" fill="#004A7F"/>
<path d="M209.987 34.7222H212.18L213.276 30.6297L216.236 34.7222H219.267L215.905 30.374L220.436 27.1216H217.624L213.422 30.1549L215.102 23.8345H212.911L209.987 34.7222Z" fill="#004A7F"/>
</g>
<g clip-path="url(#clip1_7715_38801)">
<path d="M24.8884 32.2784H23.8473V35.069H20V23.9705H25.5039C28.6816 23.9705 30.702 25.5899 30.702 28.1583C30.7311 28.8808 30.5431 29.5959 30.1608 30.216C29.7786 30.8361 29.2188 31.3342 28.55 31.6494L30.9459 35.0727H26.8276L24.8884 32.2784ZM25.2484 26.8552H23.8473V29.4538H25.2484C26.3051 29.4538 26.7967 28.9642 26.7967 28.1545C26.7967 27.3448 26.2896 26.8552 25.2484 26.8552Z" fill="#470377"/>
<path d="M41.6288 32.2438V35.0684H32.1421V23.9661H41.4159V26.7906H35.9236V28.0899H40.7501V30.7864H35.9236V32.2438H41.6288Z" fill="#470377"/>
<path d="M53.2981 35.0684L53.2671 30.0106L50.79 34.0704H49.0947L46.6175 30.1838V35.0684H43.1108V23.9661H46.2731L49.9888 29.8825L53.6077 23.9661H56.7699L56.8048 35.0684H53.2981Z" fill="#470377"/>
<path d="M62.5055 23.9661H58.6582V35.0684H62.5055V23.9661Z" fill="#470377"/>
<path d="M66.8405 26.8697H63.5V23.9661H74.0279V26.8697H70.6878V35.0684H66.8405V26.8697Z" fill="#470377"/>
<path d="M87.014 23.9285H82.6637L78.9092 29.442L82.741 35.0684H87.014L83.124 29.4984L87.014 23.9285Z" fill="#008AD8"/>
<path d="M74.5205 23.9285H78.8711L82.6253 29.442L78.7935 35.0684H74.5205L78.4105 29.4984L74.5205 23.9285Z" fill="#7CC21C"/>
</g>
<defs>
<clipPath id="clip0_7715_38801">
<rect width="110.618" height="22.2262" fill="white" transform="translate(110 12.8606)"/>
</clipPath>
<clipPath id="clip1_7715_38801">
<rect width="67" height="11.3117" fill="white" transform="translate(20 23.8442)"/>
</clipPath>
</defs>
</svg>
