<svg width="24" height="24" viewBox="0 0 24 24" fill="none" xmlns="http://www.w3.org/2000/svg">
<path d="M12.0011 0.750026C11.0155 0.747414 10.0391 0.939581 9.12794 1.31549C8.21651 1.69153 7.38839 2.24403 6.69121 2.94121C5.99403 3.63839 5.44153 4.46651 5.06549 5.37794C4.68958 6.28906 4.49741 7.26547 4.50003 8.25107C4.50003 11.2332 6.03181 13.2315 6.7977 13.8579C6.86634 13.9227 6.93615 13.9881 7.0067 14.0542C7.44799 14.4678 7.91786 14.908 8.30571 15.3879C8.76314 15.9538 9.00003 16.4501 9.00003 16.875V18C9.00003 18.4142 9.33581 18.75 9.75003 18.75C10.1642 18.75 10.5 18.4142 10.5 18V16.875C10.5 15.9265 9.99512 15.0918 9.47228 14.445C9.01325 13.877 8.45825 13.3579 8.02167 12.9494L8.02083 12.9486C7.95323 12.8854 7.88847 12.8248 7.82735 12.7671C6.67302 11.6775 6.00003 10.0294 6.00003 8.25003L6.00002 8.24793C5.99782 7.45966 6.15146 6.67873 6.45211 5.95003C6.75275 5.22134 7.19447 4.55926 7.75187 4.00187C8.30926 3.44447 8.97134 3.00275 9.70003 2.70211C10.4287 2.40146 11.2097 2.24782 11.9979 2.25002L12 2.25003C15.3476 2.25003 18 4.91332 18 8.25003C18 10.0976 17.3603 11.6318 16.1693 12.7704C16.1004 12.8362 16.0268 12.9058 15.9499 12.9786C15.517 13.3881 14.9743 13.9014 14.5257 14.4568C14.0048 15.1016 13.5 15.9325 13.5 16.875V18C13.5 18.4142 13.8358 18.75 14.25 18.75C14.6642 18.75 15 18.4142 15 18V16.875C15 16.4581 15.2344 15.9665 15.6926 15.3993C16.0721 14.9294 16.5293 14.4962 16.9644 14.084L16.9667 14.0819C17.0474 14.0055 17.1273 13.9298 17.2058 13.8547C18.7185 12.4085 19.5 10.4702 19.5 8.25003C19.5 4.08708 16.1784 0.750585 12.0011 0.750026Z" fill="#B1980C"/>
<path d="M9.75 22.5C9.75 22.0858 10.0858 21.75 10.5 21.75H13.5C13.9142 21.75 14.25 22.0858 14.25 22.5C14.25 22.9142 13.9142 23.25 13.5 23.25H10.5C10.0858 23.25 9.75 22.9142 9.75 22.5Z" fill="#B1980C"/>
<path d="M9.75 19.5C9.33579 19.5 9 19.8358 9 20.25C9 20.6642 9.33579 21 9.75 21H14.25C14.6642 21 15 20.6642 15 20.25C15 19.8358 14.6642 19.5 14.25 19.5H9.75Z" fill="#B1980C"/>
<path d="M12.75 12.6214C13.2044 12.4803 13.7155 12.2244 14.2265 11.8594C14.5078 11.6585 14.625 11.2266 14.4375 10.8984C14.3536 10.7517 14.1328 10.5 13.8047 10.5C13.5742 10.5 13.4851 10.5544 13.3677 10.6261C13.1867 10.7367 12.9383 10.8884 12 10.9453C11.0616 10.8884 10.8132 10.7367 10.6322 10.6261C10.5148 10.5544 10.4258 10.5 10.1953 10.5C9.86714 10.5 9.64631 10.7517 9.56246 10.8984C9.37496 11.2266 9.49215 11.6585 9.7734 11.8594C10.2845 12.2245 10.7956 12.4803 11.25 12.6214V18C11.25 18.4142 11.5858 18.75 12 18.75C12.4142 18.75 12.75 18.4142 12.75 18V12.6214Z" fill="#B1980C"/>
</svg>
