<svg width="20" height="20" viewBox="0 0 20 20" fill="none" xmlns="http://www.w3.org/2000/svg">
<path fill-rule="evenodd" clip-rule="evenodd" d="M19.375 12.5C19.375 13.1904 18.8154 13.75 18.125 13.75H1.875C1.18464 13.75 0.625 13.1904 0.625 12.5V3.75C0.625 3.05964 1.18464 2.5 1.875 2.5H18.125C18.8154 2.5 19.375 3.05964 19.375 3.75V12.5ZM1.875 12.5H18.125V3.75H1.875V12.5Z" fill="#6E9E14"/>
<path fill-rule="evenodd" clip-rule="evenodd" d="M1.875 15C1.875 14.6548 2.15482 14.375 2.5 14.375H17.5C17.8452 14.375 18.125 14.6548 18.125 15C18.125 15.3452 17.8452 15.625 17.5 15.625H2.5C2.15482 15.625 1.875 15.3452 1.875 15Z" fill="#6E9E14"/>
<path fill-rule="evenodd" clip-rule="evenodd" d="M3.125 16.875C3.125 16.5298 3.40482 16.25 3.75 16.25H16.25C16.5952 16.25 16.875 16.5298 16.875 16.875C16.875 17.2202 16.5952 17.5 16.25 17.5H3.75C3.40482 17.5 3.125 17.2202 3.125 16.875Z" fill="#6E9E14"/>
<path fill-rule="evenodd" clip-rule="evenodd" d="M10 5.625C8.61929 5.625 7.5 6.74429 7.5 8.125C7.5 9.50571 8.61929 10.625 10 10.625C11.3807 10.625 12.5 9.50571 12.5 8.125C12.5 6.74429 11.3807 5.625 10 5.625ZM6.25 8.125C6.25 6.05393 7.92893 4.375 10 4.375C12.0711 4.375 13.75 6.05393 13.75 8.125C13.75 10.1961 12.0711 11.875 10 11.875C7.92893 11.875 6.25 10.1961 6.25 8.125Z" fill="#6E9E14"/>
<path fill-rule="evenodd" clip-rule="evenodd" d="M15.625 2.5C15.9702 2.5 16.25 2.77982 16.25 3.125C16.25 3.78804 16.5134 4.42393 16.9822 4.89277C17.4511 5.36161 18.087 5.625 18.75 5.625C19.0952 5.625 19.375 5.90482 19.375 6.25C19.375 6.59518 19.0952 6.875 18.75 6.875C17.7554 6.875 16.8016 6.47991 16.0983 5.77665C15.3951 5.07339 15 4.11956 15 3.125C15 2.77982 15.2798 2.5 15.625 2.5Z" fill="#6E9E14"/>
<path fill-rule="evenodd" clip-rule="evenodd" d="M4.375 2.5C4.72018 2.5 5 2.77982 5 3.125C5 3.61746 4.903 4.10509 4.71455 4.56006C4.52609 5.01503 4.24987 5.42843 3.90165 5.77665C3.55343 6.12487 3.14003 6.40109 2.68506 6.58955C2.23009 6.778 1.74246 6.875 1.25 6.875C0.904822 6.875 0.625 6.59518 0.625 6.25C0.625 5.90482 0.904822 5.625 1.25 5.625C1.5783 5.625 1.90339 5.56034 2.20671 5.4347C2.51002 5.30906 2.78562 5.12491 3.01777 4.89277C3.24991 4.66062 3.43406 4.38502 3.5597 4.08171C3.68534 3.77839 3.75 3.4533 3.75 3.125C3.75 2.77982 4.02982 2.5 4.375 2.5Z" fill="#6E9E14"/>
<path fill-rule="evenodd" clip-rule="evenodd" d="M16.0983 10.4733C16.8016 9.77009 17.7554 9.375 18.75 9.375C19.0952 9.375 19.375 9.65482 19.375 10C19.375 10.3452 19.0952 10.625 18.75 10.625C18.087 10.625 17.4511 10.8884 16.9822 11.3572C16.5134 11.8261 16.25 12.462 16.25 13.125C16.25 13.4702 15.9702 13.75 15.625 13.75C15.2798 13.75 15 13.4702 15 13.125C15 12.1304 15.3951 11.1766 16.0983 10.4733Z" fill="#6E9E14"/>
<path fill-rule="evenodd" clip-rule="evenodd" d="M0.625 10C0.625 9.65482 0.904822 9.375 1.25 9.375C1.74246 9.375 2.23009 9.472 2.68506 9.66045C3.14003 9.84891 3.55343 10.1251 3.90165 10.4733C4.24987 10.8216 4.52609 11.235 4.71455 11.6899C4.903 12.1449 5 12.6325 5 13.125C5 13.4702 4.72018 13.75 4.375 13.75C4.02982 13.75 3.75 13.4702 3.75 13.125C3.75 12.7967 3.68534 12.4716 3.5597 12.1683C3.43406 11.865 3.24991 11.5894 3.01777 11.3572C2.78562 11.1251 2.51002 10.9409 2.20671 10.8153C1.90339 10.6897 1.5783 10.625 1.25 10.625C0.904822 10.625 0.625 10.3452 0.625 10Z" fill="#6E9E14"/>
</svg>
