<svg width="17" height="16" viewBox="0 0 17 16" fill="none" xmlns="http://www.w3.org/2000/svg">
<g id="Icon" clip-path="url(#clip0_1737_67584)">
<path id="Vector" d="M7.94531 2.65088H3.27865C2.92502 2.65088 2.58589 2.79135 2.33584 3.0414C2.08579 3.29145 1.94531 3.63059 1.94531 3.98421V13.3175C1.94531 13.6712 2.08579 14.0103 2.33584 14.2604C2.58589 14.5104 2.92502 14.6509 3.27865 14.6509H12.612C12.9656 14.6509 13.3047 14.5104 13.5548 14.2604C13.8048 14.0103 13.9453 13.6712 13.9453 13.3175V8.65088" stroke="#09B447" stroke-width="1.33333" stroke-linecap="round" stroke-linejoin="round"/>
<path id="Vector_2" d="M12.9453 1.65103C13.2105 1.38581 13.5702 1.23682 13.9453 1.23682C14.3204 1.23682 14.6801 1.38581 14.9453 1.65103C15.2105 1.91625 15.3595 2.27596 15.3595 2.65103C15.3595 3.0261 15.2105 3.38581 14.9453 3.65103L8.61198 9.98436L5.94531 10.651L6.61198 7.98436L12.9453 1.65103Z" stroke="#09B447" stroke-width="1.33333" stroke-linecap="round" stroke-linejoin="round"/>
</g>
<defs>
<clipPath id="clip0_1737_67584">
<rect width="16" height="16" fill="white" transform="translate(0.5)"/>
</clipPath>
</defs>
</svg>
