<svg width="24" height="24" viewBox="0 0 24 24" fill="none" xmlns="http://www.w3.org/2000/svg">
<path d="M3 14.1667L7.30435 15.4167M7.30435 15.4167L16.6957 9.58333M7.30435 15.4167L6.13043 20M16.6957 9.58333L17.8696 5M16.6957 9.58333L21 10.8333" stroke="#262626" stroke-width="2"/>
<path d="M21 14.1667L16.6957 15.4167M16.6957 15.4167L7.30435 9.58333M16.6957 15.4167L17.8696 20M7.30435 9.58333L6.13043 5M7.30435 9.58333L3 10.8333" stroke="#262626" stroke-width="2"/>
<path d="M15.0614 3.41667L11.8267 6.51934M11.8267 6.51934L12.1829 17.5691M11.8267 6.51934L8.4444 3.21104M12.1829 17.5691L15.5652 20.8774M12.1829 17.5691L8.94818 20.6718" stroke="#262626" stroke-width="2"/>
</svg>
