<svg width="20" height="20" viewBox="0 0 20 20" fill="none" xmlns="http://www.w3.org/2000/svg">
<path d="M6.66667 14.1672H13.3333M9.18142 2.30394L3.52949 6.69989C3.15168 6.99374 2.96278 7.14066 2.82669 7.32466C2.70614 7.48765 2.61633 7.67127 2.56169 7.86649C2.5 8.08688 2.5 8.32619 2.5 8.80483V14.8339C2.5 15.7673 2.5 16.2341 2.68166 16.5906C2.84144 16.9042 3.09641 17.1592 3.41002 17.3189C3.76653 17.5006 4.23324 17.5006 5.16667 17.5006H14.8333C15.7667 17.5006 16.2335 17.5006 16.59 17.3189C16.9036 17.1592 17.1586 16.9042 17.3183 16.5906C17.5 16.2341 17.5 15.7673 17.5 14.8339V8.80483C17.5 8.32619 17.5 8.08688 17.4383 7.86649C17.3837 7.67127 17.2938 7.48765 17.1733 7.32466C17.0372 7.14066 16.8483 6.99374 16.4705 6.69989L10.8186 2.30394C10.5258 2.07624 10.3794 1.96238 10.2177 1.91861C10.0752 1.87999 9.92483 1.87999 9.78225 1.91861C9.62058 1.96238 9.47417 2.07624 9.18142 2.30394Z" stroke="#262626" stroke-width="2" stroke-linecap="round" stroke-linejoin="round"/>
</svg>
