<svg width="25" height="24" viewBox="0 0 25 24" fill="none" xmlns="http://www.w3.org/2000/svg">
<path fill-rule="evenodd" clip-rule="evenodd" d="M6.63327 7C6.63327 7.41421 6.29749 7.75 5.88327 7.75H3.76562C3.3514 7.75 3.01562 7.41421 3.01562 7C3.01562 6.58579 3.3514 6.25 3.76562 6.25H5.88327C6.29749 6.25 6.63327 6.58579 6.63327 7Z" fill="#09B447"/>
<path fill-rule="evenodd" clip-rule="evenodd" d="M21.986 7C21.986 7.41421 21.6502 7.75 21.236 7.75H13.8242C13.41 7.75 13.0742 7.41421 13.0742 7C13.0742 6.58578 13.41 6.25 13.8242 6.25H21.236C21.6502 6.25 21.986 6.58579 21.986 7Z" fill="#09B447"/>
<path d="M5.35352 7C5.35352 5.60218 5.35352 4.90326 5.58188 4.35195C5.88637 3.61687 6.47039 3.03284 7.20547 2.72836C7.75679 2.5 8.4557 2.5 9.85352 2.5C11.2513 2.5 11.9502 2.5 12.5015 2.72836C13.2366 3.03284 13.8206 3.61687 14.1251 4.35195C14.3535 4.90326 14.3535 5.60218 14.3535 7C14.3535 8.39782 14.3535 9.09674 14.1251 9.64805C13.8206 10.3831 13.2366 10.9672 12.5015 11.2716C11.9502 11.5 11.2513 11.5 9.85352 11.5C8.4557 11.5 7.75679 11.5 7.20547 11.2716C6.47039 10.9672 5.88637 10.3831 5.58188 9.64805C5.35352 9.09674 5.35352 8.39782 5.35352 7Z" fill="#09B447"/>
<path fill-rule="evenodd" clip-rule="evenodd" d="M18.3672 18C18.3672 17.5858 18.703 17.25 19.1172 17.25H21.2349C21.6491 17.25 21.9849 17.5858 21.9849 18C21.9849 18.4142 21.6491 18.75 21.2349 18.75H19.1172C18.703 18.75 18.3672 18.4142 18.3672 18Z" fill="#09B447"/>
<path fill-rule="evenodd" clip-rule="evenodd" d="M3.01562 18C3.01562 17.5858 3.35142 17.25 3.76562 17.25H11.1774C11.5916 17.25 11.9274 17.5858 11.9274 18C11.9274 18.4142 11.5916 18.75 11.1774 18.75H3.76562C3.3514 18.75 3.01562 18.4142 3.01562 18Z" fill="#09B447"/>
<path d="M19.6465 18C19.6465 19.3978 19.6465 20.0967 19.4181 20.6481C19.1136 21.3831 18.5296 21.9672 17.7945 22.2716C17.2432 22.5 16.5443 22.5 15.1465 22.5C13.7486 22.5 13.0497 22.5 12.4984 22.2716C11.7633 21.9672 11.1793 21.3831 10.8748 20.648C10.6465 20.0967 10.6465 19.3978 10.6465 18C10.6465 16.6022 10.6465 15.9033 10.8748 15.3519C11.1793 14.6169 11.7633 14.0328 12.4984 13.7284C13.0497 13.5 13.7486 13.5 15.1465 13.5C16.5443 13.5 17.2432 13.5 17.7945 13.7284C18.5296 14.0328 19.1136 14.6169 19.4181 15.3519C19.6465 15.9033 19.6465 16.6022 19.6465 18Z" fill="#09B447"/>
</svg>
