<svg width="16" height="16" viewBox="0 0 16 16" fill="none" xmlns="http://www.w3.org/2000/svg">
<path d="M8 0L9.22048 1.86421L11.0615 0.608964L11.4756 2.79833L13.6569 2.34315L13.2017 4.52435L15.391 4.93853L14.1358 6.77951L16 8L14.1358 9.22048L15.391 11.0615L13.2017 11.4756L13.6569 13.6569L11.4756 13.2017L11.0615 15.391L9.22048 14.1358L8 16L6.77951 14.1358L4.93853 15.391L4.52435 13.2017L2.34315 13.6569L2.79833 11.4756L0.608964 11.0615L1.86421 9.22048L0 8L1.86421 6.77951L0.608964 4.93853L2.79833 4.52435L2.34315 2.34315L4.52435 2.79833L4.93853 0.608964L6.77951 1.86421L8 0Z" fill="#3A935A"/>
<path d="M7.52 6.72731C7.52 7.55331 6.939 8.13431 6.12 8.13431C5.301 8.13431 4.72 7.55331 4.72 6.72731C4.72 5.90131 5.301 5.32031 6.12 5.32031C6.939 5.32031 7.52 5.90131 7.52 6.72731ZM10.488 5.43231L6.554 10.5983H5.497L9.431 5.43231H10.488ZM6.68 6.72731C6.68 6.37731 6.456 6.13231 6.12 6.13231C5.784 6.13231 5.56 6.37731 5.56 6.72731C5.56 7.07731 5.784 7.32231 6.12 7.32231C6.456 7.32231 6.68 7.07731 6.68 6.72731ZM11.279 9.28231C11.279 10.1083 10.698 10.6893 9.879 10.6893C9.06 10.6893 8.479 10.1083 8.479 9.28231C8.479 8.45631 9.06 7.87531 9.879 7.87531C10.698 7.87531 11.279 8.45631 11.279 9.28231ZM10.439 9.28231C10.439 8.93231 10.215 8.68731 9.879 8.68731C9.543 8.68731 9.319 8.93231 9.319 9.28231C9.319 9.63231 9.543 9.87731 9.879 9.87731C10.215 9.87731 10.439 9.63231 10.439 9.28231Z" fill="white"/>
</svg>
