<svg width="20" height="20" viewBox="0 0 20 20" fill="none" xmlns="http://www.w3.org/2000/svg">
<path fill-rule="evenodd" clip-rule="evenodd" d="M15.7645 1.38445C16.6028 1.23567 17.4052 1.20293 18.0567 1.36185C18.2031 1.39701 18.3366 1.47293 18.4417 1.58085C18.5455 1.68752 18.6173 1.8211 18.6491 1.96641C18.8021 2.63718 18.7703 3.44644 18.6211 4.2912C18.47 5.14666 18.1907 6.08077 17.8128 7.01842C17.0597 8.88691 15.8908 10.8279 14.4821 12.2292C14.0681 12.6458 13.6244 13.0315 13.1546 13.3835C13.1854 14.1504 13.0979 14.944 12.7853 15.6613C12.2789 16.8196 11.3662 17.5476 10.4874 17.9993C9.61114 18.4496 8.73043 18.6465 8.20779 18.7305C8.05998 18.7544 7.90866 18.744 7.76553 18.7001C7.62239 18.6561 7.49127 18.5799 7.3823 18.4772C7.27333 18.3745 7.18943 18.2482 7.13708 18.1079C7.08473 17.9676 7.06534 17.8172 7.0804 17.6682C7.08058 17.6665 7.08076 17.6647 7.08096 17.6629L7.35628 15.1544C7.3284 15.1516 7.30053 15.1487 7.27267 15.1456C6.9659 15.1139 6.67954 14.9769 6.46236 14.7579L6.46087 14.7564L5.23984 13.5354L5.23832 13.5339C5.0194 13.3168 4.88243 13.0307 4.85068 12.724C4.84743 12.6947 4.84435 12.6654 4.84143 12.6361L2.33059 12.9118L2.32801 12.912L2.32607 12.9122C2.17691 12.9275 2.02624 12.9082 1.88574 12.8559C1.74522 12.8036 1.61865 12.7196 1.51583 12.6105C1.41301 12.5014 1.33669 12.37 1.29279 12.2267C1.24889 12.0833 1.2386 11.9317 1.2627 11.7838L1.26288 11.7827C1.3487 11.2617 1.54651 10.3823 1.99751 9.50653C2.44968 8.62852 3.17676 7.71675 4.33426 7.2078L4.33592 7.20708C5.05352 6.89403 5.85134 6.80668 6.62302 6.84037C6.975 6.3723 7.36048 5.93018 7.77647 5.51752C9.18182 4.11351 11.1522 2.94516 13.033 2.19255C13.9769 1.81481 14.9142 1.53536 15.7645 1.38445ZM13.4974 3.35308C11.7286 4.06087 9.91518 5.1475 8.65924 6.40251L8.65758 6.40417C8.20901 6.84906 7.79998 7.33213 7.43513 7.84791C7.30642 8.02987 7.09054 8.12951 6.86857 8.10943C6.10779 8.0406 5.404 8.10515 4.83663 8.35241C4.02228 8.71073 3.47653 9.36479 3.1088 10.0788C2.82552 10.6289 2.66 11.1923 2.56475 11.6285L5.36098 11.3216C5.53656 11.3023 5.7121 11.3582 5.84417 11.4755C5.97625 11.5928 6.05254 11.7605 6.05416 11.9371C6.05615 12.1548 6.06922 12.3722 6.09331 12.5885C6.09355 12.5907 6.09378 12.5929 6.094 12.595C6.09596 12.6145 6.10463 12.6326 6.11853 12.6464L6.12112 12.6489L7.3473 13.8751L7.34984 13.8777C7.36358 13.8916 7.38175 13.9002 7.4012 13.9022C7.40354 13.9024 7.40588 13.9027 7.40822 13.9029C7.62321 13.9269 7.83927 13.94 8.05558 13.9421C8.23214 13.9438 8.39974 14.0201 8.51694 14.1522C8.63415 14.2842 8.69003 14.4597 8.67076 14.6352L8.36408 17.4296C8.80028 17.3356 9.36498 17.1707 9.916 16.8875C10.6305 16.5203 11.2838 15.9749 11.6395 15.1617C11.8874 14.5927 11.9519 13.892 11.8866 13.1336C11.8675 12.9121 11.9675 12.6971 12.1493 12.569C12.6665 12.2046 13.1508 11.7956 13.5968 11.3468L13.5994 11.3442C14.8613 10.0893 15.9472 8.30325 16.6534 6.55113C17.0053 5.67819 17.2569 4.82833 17.3902 4.07373C17.4982 3.46206 17.5239 2.93912 17.4775 2.52733C17.0896 2.48358 16.5845 2.50845 15.9829 2.61522C15.2325 2.7484 14.3783 3.00055 13.4974 3.35308ZM12.8452 6.12381C12.6389 6.12381 12.4373 6.18499 12.2657 6.2996C12.0942 6.41421 11.9605 6.57712 11.8816 6.76771C11.8027 6.9583 11.782 7.16802 11.8223 7.37034C11.8625 7.57266 11.9619 7.7585 12.1078 7.90435C12.2045 8.00126 12.3199 8.07865 12.4463 8.13111C12.5728 8.18356 12.7083 8.21056 12.8452 8.21056C12.9821 8.21056 13.1176 8.18356 13.2441 8.13111C13.3705 8.07865 13.4854 8.00177 13.5821 7.90487C13.728 7.75902 13.8278 7.57266 13.8681 7.37034C13.9084 7.16802 13.8877 6.9583 13.8088 6.76771C13.7299 6.57712 13.5962 6.41421 13.4247 6.2996C13.2531 6.18499 13.0515 6.12381 12.8452 6.12381ZM11.5712 5.26028C11.9483 5.0083 12.3917 4.87381 12.8452 4.87381C13.2987 4.87381 13.7421 5.0083 14.1192 5.26028C14.4962 5.51226 14.7901 5.8704 14.9637 6.28942C15.1372 6.70844 15.1826 7.1695 15.0941 7.61431C15.0056 8.05888 14.7874 8.46724 14.4669 8.78782C14.2541 9.00108 14.0013 9.17026 13.7231 9.2857C13.4448 9.40114 13.1465 9.46056 12.8452 9.46056C12.5439 9.46056 12.2456 9.40114 11.9673 9.2857C11.6892 9.17032 11.4365 9.00124 11.2238 8.78814C10.9032 8.46751 10.6848 8.05902 10.5963 7.61431C10.5078 7.1695 10.5532 6.70844 10.7267 6.28942C10.9003 5.87041 11.1941 5.51226 11.5712 5.26028Z" fill="#DE6844"/>
<path fill-rule="evenodd" clip-rule="evenodd" d="M4.90265 13.6737C4.94471 14.0163 4.70106 14.3281 4.35846 14.3702C4.10762 14.401 3.87425 14.5146 3.69529 14.693C3.63525 14.7536 3.53833 14.9197 3.44264 15.2329C3.35299 15.5265 3.28587 15.8755 3.23702 16.2219C3.20656 16.4379 3.18404 16.6468 3.1675 16.8319C3.35274 16.8153 3.56177 16.7927 3.77793 16.7622C4.12436 16.7134 4.47336 16.6462 4.76669 16.5565C5.08056 16.4604 5.24593 16.3633 5.30547 16.3037L5.30654 16.3027C5.48532 16.1247 5.5989 15.8916 5.62894 15.6411C5.67004 15.2983 5.98119 15.0538 6.32391 15.0949C6.66663 15.136 6.91115 15.4472 6.87005 15.7899C6.80657 16.3193 6.56663 16.8118 6.18894 17.1881C5.90416 17.4726 5.49173 17.6419 5.13231 17.7518C4.75206 17.8681 4.3321 17.9464 3.9526 18C3.57024 18.0539 3.2129 18.0849 2.95215 18.1025C2.82133 18.1113 2.71376 18.1168 2.63821 18.1201C2.60041 18.1218 2.57055 18.1229 2.54974 18.1236C2.53933 18.124 2.53118 18.1242 2.52541 18.1244L2.51857 18.1246L2.51561 18.1247C2.51561 18.1247 2.51542 18.1247 2.49949 17.4999C1.8747 17.4839 1.8747 17.4837 1.8747 17.4837L1.87478 17.4808L1.87498 17.4739C1.87515 17.4682 1.8754 17.46 1.87576 17.4496C1.87647 17.4288 1.87758 17.399 1.87924 17.3612C1.88256 17.2857 1.88805 17.1782 1.89685 17.0474C1.9144 16.7868 1.94537 16.4296 1.99927 16.0474C2.05277 15.6679 2.13101 15.2481 2.24716 14.8678C2.35707 14.5079 2.52618 14.0953 2.81032 13.8102L2.81137 13.8092C3.18756 13.4335 3.67848 13.1943 4.20616 13.1295C4.54876 13.0875 4.86059 13.3311 4.90265 13.6737ZM2.49949 17.4999L1.8747 17.4837C1.87034 17.655 1.93643 17.8207 2.05755 17.9418C2.17867 18.0629 2.34438 18.129 2.51561 18.1247L2.49949 17.4999Z" fill="#DE6844"/>
</svg>
