<svg width="24" height="24" viewBox="0 0 24 24" fill="none" xmlns="http://www.w3.org/2000/svg">
<g clip-path="url(#clip0_7836_12652)">
<path d="M3.70671 10.0117C4.10585 7.99629 5.18255 6.17811 6.75793 4.85923C8.3333 3.54035 10.3125 2.80019 12.3667 2.76172C14.7706 2.8116 17.0564 3.81397 18.7215 5.5485C20.3867 7.28303 21.2949 9.60776 21.2467 12.0117C21.2949 14.4157 20.3867 16.7404 18.7215 18.4749C17.0564 20.2095 14.7706 21.2118 12.3667 21.2617C10.3108 21.2255 8.32923 20.4864 6.75181 19.1673C5.17439 17.8482 4.09622 16.0288 3.69671 14.0117" stroke="#173D4F" stroke-width="2" stroke-linecap="round" stroke-linejoin="round"/>
<path d="M3.68703 9.99953L6.45703 9.01953" stroke="#173D4F" stroke-width="2" stroke-linecap="round" stroke-linejoin="round"/>
<path d="M3.68701 10.0013L2.74701 7.11133" stroke="#173D4F" stroke-width="2" stroke-linecap="round" stroke-linejoin="round"/>
</g>
<defs>
<clipPath id="clip0_7836_12652">
<rect width="24" height="24" fill="white"/>
</clipPath>
</defs>
</svg>
