<svg width="48" height="48" viewBox="0 0 48 48" fill="none" xmlns="http://www.w3.org/2000/svg">
<path d="M0 24C0 10.7452 10.7452 0 24 0C37.2548 0 48 10.7452 48 24C48 37.2548 37.2548 48 24 48C10.7452 48 0 37.2548 0 24Z" fill="#1F1F1F"/>
<path d="M28.2715 16.1459C28.4904 15.9271 28.7502 15.7534 29.0362 15.635C29.3221 15.5165 29.6286 15.4556 29.9382 15.4556C30.2477 15.4556 30.5542 15.5165 30.8401 15.635C31.1261 15.7534 31.3859 15.9271 31.6048 16.1459C31.8237 16.3648 31.9973 16.6246 32.1158 16.9106C32.2342 17.1966 32.2952 17.5031 32.2952 17.8126C32.2952 18.1221 32.2342 18.4286 32.1158 18.7146C31.9973 19.0005 31.8237 19.2604 31.6048 19.4793L20.3548 30.7293L15.7715 31.9793L17.0215 27.3959L28.2715 16.1459Z" stroke="white" stroke-width="2" stroke-linecap="round" stroke-linejoin="round"/>
</svg>
