<svg width="184" height="184" viewBox="0 0 184 184" fill="none" xmlns="http://www.w3.org/2000/svg">
<g clip-path="url(#clip0_7724_24356)">
<g opacity="0.5">
<g filter="url(#filter0_f_7724_24356)">
<circle cx="98" cy="108" r="47" fill="#F4EAE6"/>
</g>
<g filter="url(#filter1_f_7724_24356)">
<circle cx="62" cy="103" r="47" fill="#F4F0D8"/>
</g>
<g filter="url(#filter2_f_7724_24356)">
<circle cx="121" cy="77" r="47" fill="#DAF2F1"/>
</g>
</g>
<g clip-path="url(#clip1_7724_24356)">
<path d="M92 44C65.6 44 44 65.6 44 92C44 118.4 65.6 140 92 140C105.2 140 117.44 134.84 126.08 126.08L117.44 117.44C110.96 123.92 101.96 128 91.88 128C71.96 128 55.88 111.92 55.88 92C55.88 72.08 71.96 56 91.88 56C101.84 56 110.48 60.32 116.96 66.92L103.88 80H139.88V44L125.6 58.28C116.96 49.64 105.08 44 91.88 44H92Z" fill="#2B7FA6"/>
</g>
</g>
<defs>
<filter id="filter0_f_7724_24356" x="-0.200001" y="9.8" width="196.4" height="196.4" filterUnits="userSpaceOnUse" color-interpolation-filters="sRGB">
<feFlood flood-opacity="0" result="BackgroundImageFix"/>
<feBlend mode="normal" in="SourceGraphic" in2="BackgroundImageFix" result="shape"/>
<feGaussianBlur stdDeviation="25.6" result="effect1_foregroundBlur_7724_24356"/>
</filter>
<filter id="filter1_f_7724_24356" x="-36.2" y="4.8" width="196.4" height="196.4" filterUnits="userSpaceOnUse" color-interpolation-filters="sRGB">
<feFlood flood-opacity="0" result="BackgroundImageFix"/>
<feBlend mode="normal" in="SourceGraphic" in2="BackgroundImageFix" result="shape"/>
<feGaussianBlur stdDeviation="25.6" result="effect1_foregroundBlur_7724_24356"/>
</filter>
<filter id="filter2_f_7724_24356" x="22.8" y="-21.2" width="196.4" height="196.4" filterUnits="userSpaceOnUse" color-interpolation-filters="sRGB">
<feFlood flood-opacity="0" result="BackgroundImageFix"/>
<feBlend mode="normal" in="SourceGraphic" in2="BackgroundImageFix" result="shape"/>
<feGaussianBlur stdDeviation="25.6" result="effect1_foregroundBlur_7724_24356"/>
</filter>
<clipPath id="clip0_7724_24356">
<rect width="184" height="184" fill="white"/>
</clipPath>
<clipPath id="clip1_7724_24356">
<rect width="96" height="96" fill="white" transform="translate(44 44)"/>
</clipPath>
</defs>
</svg>
