<svg width="30" height="30" viewBox="0 0 30 30" fill="none" xmlns="http://www.w3.org/2000/svg">
    <g clip-path="url(#clip0_6125_28483)">
        <path opacity="0.32"
            d="M15.0001 30.0001C23.2844 30.0001 30.0001 23.2844 30.0001 15.0001C30.0001 6.71576 23.2844 0 15.0001 0C6.71576 0 0 6.71576 0 15.0001C0 23.2844 6.71576 30.0001 15.0001 30.0001Z"
            fill="#484848" />
        <path
            d="M14.999 27.5005C21.9026 27.5005 27.499 21.904 27.499 15.0005C27.499 8.09693 21.9026 2.50049 14.999 2.50049C8.09546 2.50049 2.49902 8.09693 2.49902 15.0005C2.49902 21.904 8.09546 27.5005 14.999 27.5005Z"
            fill="#484848" />
        <path d="M12.501 9.99902L20.001 14.999L12.501 19.999V9.99902Z" fill="white" />
    </g>
    <defs>
        <clipPath id="clip0_6125_28483">
            <rect width="30" height="30" fill="white" />
        </clipPath>
    </defs>
</svg>
