<svg width="20" height="20" viewBox="0 0 20 20" fill="none" xmlns="http://www.w3.org/2000/svg">
<path d="M11.875 3.33301H8.125C5.47335 3.33301 4.14752 3.33301 3.32376 4.16985C2.5 5.00668 2.5 6.35355 2.5 9.04726V10.9521C2.5 13.6458 2.5 14.9927 3.32376 15.8295C4.14752 16.6663 5.47335 16.6663 8.125 16.6663H11.875C14.5267 16.6663 15.8525 16.6663 16.6762 15.8295C17.5 14.9927 17.5 13.6458 17.5 10.9521V9.04726C17.5 6.35355 17.5 5.00668 16.6762 4.16985C15.8525 3.33301 14.5267 3.33301 11.875 3.33301Z" stroke="#595959" stroke-width="2"/>
<path d="M15.8333 13.3333H14.1667C13.381 13.3333 12.9882 13.3333 12.7441 13.0892C12.5 12.8452 12.5 12.4523 12.5 11.6667C12.5 10.881 12.5 10.4882 12.7441 10.2441C12.9882 10 13.381 10 14.1667 10H15.8333C16.619 10 17.0118 10 17.2559 10.2441C17.5 10.4882 17.5 10.881 17.5 11.6667C17.5 12.4523 17.5 12.8452 17.2559 13.0892C17.0118 13.3333 16.619 13.3333 15.8333 13.3333Z" stroke="#595959" stroke-width="2"/>
</svg>
