<svg width="125" height="40" viewBox="0 0 125 40" fill="none" xmlns="http://www.w3.org/2000/svg">
<g clip-path="url(#clip0_48_913)">
<path d="M35.1416 20.3095L27.4363 24.7737V16.2386L35.1416 20.3095Z" fill="#1F1F1F"/>
<path d="M7.66802 15.7845L7.68149 24.6897L0.0527344 20.5407L7.66802 15.7845Z" fill="#1F1F1F"/>
<path fill-rule="evenodd" clip-rule="evenodd" d="M18.2009 39.9467L35.182 30.1428V21.6447L26.3119 26.7736L26.2343 4.64584L18.1874 0L18.2009 39.9467ZM16.9267 0.0847105L0 9.85723L0 19.0969L8.80803 13.6487L8.80803 35.3053L8.86664 35.3391L8.80803 35.3727V35.4031L14.4086 38.5385L16.9401 40L16.9267 0.0847105Z" fill="#1F1F1F"/>
<path d="M97.336 31.5869H93.1238L80.4501 12.4159V31.5869H76.2379V5.87788H80.4501L93.1238 25.0119V5.87788H97.336V31.5869Z" fill="#1F1F1F"/>
<path d="M71.7674 5.87788V31.5869H67.5757V5.87788H71.7674Z" fill="#1F1F1F"/>
<path d="M51.1821 27.9247H63.1052V31.5869H46.1987V28.2946L58.0849 9.54002H46.1987V5.87788H63.1052V9.17011L51.1821 27.9247Z" fill="#1F1F1F"/>
<path fill-rule="evenodd" clip-rule="evenodd" d="M124.572 26.2803C122.244 29.5805 118.403 31.7362 114.058 31.7362C106.958 31.7362 101.202 25.9805 101.202 18.8806C101.202 11.7806 106.958 6.02493 114.058 6.02493C118.022 6.02493 121.567 7.81938 123.926 10.6404L121.049 13.0426C119.412 10.8885 116.889 9.50801 114.059 9.50801C109.125 9.50801 105.125 13.7028 105.125 18.8774C105.125 24.0519 109.125 28.2467 114.059 28.2467C117.148 28.2467 119.871 26.602 121.476 24.1018L124.572 26.2803Z" fill="#1F1F1F"/>
</g>
<defs>
<clipPath id="clip0_48_913">
<rect width="124.572" height="40" fill="white"/>
</clipPath>
</defs>
</svg>
