<svg width="44" height="44" viewBox="0 0 44 44" fill="none" xmlns="http://www.w3.org/2000/svg">
<path d="M0 22C0 9.84974 9.84974 0 22 0C34.1503 0 44 9.84974 44 22C44 34.1503 34.1503 44 22 44C9.84974 44 0 34.1503 0 22Z" fill="#1F1F1F"/>
<path d="M26.2715 14.1454C26.4904 13.9266 26.7502 13.7529 27.0362 13.6345C27.3221 13.516 27.6286 13.4551 27.9382 13.4551C28.2477 13.4551 28.5542 13.516 28.8401 13.6345C29.1261 13.7529 29.3859 13.9266 29.6048 14.1454C29.8237 14.3643 29.9973 14.6241 30.1158 14.9101C30.2342 15.1961 30.2952 15.5026 30.2952 15.8121C30.2952 16.1216 30.2342 16.4281 30.1158 16.7141C29.9973 17.0001 29.8237 17.2599 29.6048 17.4788L18.3548 28.7288L13.7715 29.9788L15.0215 25.3954L26.2715 14.1454Z" stroke="white" stroke-width="2" stroke-linecap="round" stroke-linejoin="round"/>
</svg>
