<svg width="56" height="56" viewBox="0 0 56 56" fill="none" xmlns="http://www.w3.org/2000/svg">
<path opacity="0.1" d="M28 0L23.5098 5.42624L17.2849 2.13137L15.213 8.86289L8.20101 8.20101L8.86289 15.213L2.13137 17.2849L5.42625 23.5098L0 28L5.42625 32.4902L2.13137 38.7151L8.86289 40.787L8.20101 47.799L15.213 47.1371L17.2849 53.8686L23.5098 50.5738L28 56L32.4902 50.5738L38.7151 53.8686L40.787 47.1371L47.799 47.799L47.1371 40.787L53.8686 38.7151L50.5738 32.4902L56 28L50.5738 23.5098L53.8686 17.2849L47.1371 15.213L47.799 8.20101L40.787 8.86289L38.7151 2.13137L32.4902 5.42624L28 0Z" fill="white"/>
</svg>
