<svg width="20" height="20" viewBox="0 0 20 20" fill="none" xmlns="http://www.w3.org/2000/svg">
<g clip-path="url(#clip0_4409_112500)">
<path d="M13.3336 13.3328L10.0003 9.99949L6.66701 13.3328" stroke="black" stroke-width="1.6" stroke-linecap="round" stroke-linejoin="round"/>
<path d="M9.99949 9.99949V17.4994" stroke="black" stroke-width="1.6" stroke-linecap="round" stroke-linejoin="round"/>
<path d="M16.9927 15.3252C17.8055 14.8821 18.4475 14.181 18.8176 13.3324C19.1876 12.4839 19.2645 11.5363 19.0362 10.6392C18.8078 9.74209 18.2872 8.94656 17.5566 8.37818C16.8259 7.8098 15.9267 7.50093 15.001 7.50032H13.951C13.6988 6.5247 13.2287 5.61895 12.576 4.85117C11.9233 4.08339 11.1051 3.47357 10.1828 3.06754C9.26055 2.6615 8.25823 2.46983 7.25121 2.50694C6.24419 2.54404 5.25869 2.80895 4.36879 3.28175C3.47889 3.75455 2.70775 4.42293 2.11335 5.23666C1.51895 6.05038 1.11675 6.98827 0.936995 7.97981C0.757238 8.97135 0.8046 9.99073 1.07552 10.9613C1.34644 11.9319 1.83387 12.8285 2.50116 13.5836" stroke="black" stroke-width="1.6" stroke-linecap="round" stroke-linejoin="round"/>
<path d="M13.3336 13.3328L10.0003 9.99949L6.66701 13.3328" stroke="black" stroke-width="1.6" stroke-linecap="round" stroke-linejoin="round"/>
</g>
<defs>
<clipPath id="clip0_4409_112500">
<rect width="19.2" height="19.2" fill="white" transform="scale(1.04166)"/>
</clipPath>
</defs>
</svg>
