<svg width="68" height="68" viewBox="0 0 68 68" fill="none" xmlns="http://www.w3.org/2000/svg">
<path d="M34 0.784283L28.9328 6.90778L28.6734 7.2213L28.3137 7.03093L21.2889 3.31268L18.9508 10.9092L18.8311 11.2981L18.4259 11.2599L10.5129 10.5129L11.2599 18.4259L11.2981 18.8311L10.9092 18.9508L3.31268 21.2889L7.03093 28.3137L7.2213 28.6734L6.90778 28.9328L0.784286 34L6.90778 39.0672L7.2213 39.3266L7.03093 39.6863L3.31268 46.7111L10.9092 49.0492L11.2981 49.1689L11.2599 49.5741L10.5129 57.4871L18.4259 56.7401L18.8311 56.7019L18.9508 57.0908L21.2889 64.6873L28.3137 60.9691L28.6734 60.7787L28.9328 61.0922L34 67.2157L39.0672 61.0922L39.3266 60.7787L39.6863 60.9691L46.7111 64.6873L49.0492 57.0908L49.1689 56.7019L49.5741 56.7401L57.4871 57.4871L56.7401 49.5741L56.7019 49.1689L57.0908 49.0492L64.6873 46.7111L60.9691 39.6863L60.7787 39.3266L61.0922 39.0672L67.2157 34L61.0922 28.9328L60.7787 28.6734L60.9691 28.3137L64.6873 21.2889L57.0908 18.9508L56.7019 18.8311L56.7401 18.4259L57.4871 10.5129L49.5741 11.2599L49.1689 11.2981L49.0492 10.9092L46.7111 3.31268L39.6863 7.03093L39.3266 7.2213L39.0672 6.90778L34 0.784283Z" stroke="url(#paint0_linear_4099_56327)"/>
<defs>
<linearGradient id="paint0_linear_4099_56327" x1="57.5" y1="58" x2="10.5" y2="17.5" gradientUnits="userSpaceOnUse">
<stop stop-color="#3CD154"/>
<stop offset="1" stop-color="#6C53E0"/>
</linearGradient>
</defs>
</svg>
